<svg width="1024" height="1024" viewBox="0 0 1024 1024" fill="none" xmlns="http://www.w3.org/2000/svg">
<rect x="92" y="12" width="840.998" height="1000" rx="20" fill="#101014" stroke="#DA8AFF" stroke-width="24"/>
<rect width="364.045" height="364.045" rx="32" transform="matrix(0.721099 -0.692832 0.721099 0.692832 250.474 512)" fill="#DA8AFF"/>
<path d="M102.961 903.956H180.822C198.495 903.956 212.822 918.283 212.822 935.956V1001.02H110.961C106.542 1001.02 102.961 997.436 102.961 993.018V903.956Z" fill="#DA8AFF"/>
<path d="M203.982 22.9814L203.982 96.5361C203.982 114.209 189.655 128.536 171.982 128.536L102.96 128.536L102.96 30.9814C102.96 26.5632 106.542 22.9814 110.96 22.9814L203.982 22.9814Z" fill="#DA8AFF"/>
<path d="M922.036 120.043L844.174 120.043C826.501 120.043 812.174 105.717 812.174 88.0435L812.174 22.9817L914.036 22.9817C918.454 22.9817 922.036 26.5634 922.036 30.9817L922.036 120.043Z" fill="#DA8AFF"/>
<path d="M821.015 1001.02L821.015 927.461C821.015 909.788 835.342 895.461 853.015 895.461L922.037 895.461L922.037 993.016C922.037 997.434 918.455 1001.02 914.037 1001.02L821.015 1001.02Z" fill="#DA8AFF"/>
</svg>
