<svg width="1024" height="1024" viewBox="0 0 1024 1024" fill="none" xmlns="http://www.w3.org/2000/svg">
<rect x="92" y="12" width="840.998" height="1000" rx="20" fill="#101014" stroke="#DA8AFF" stroke-width="24"/>
<rect width="364.045" height="364.045" rx="32" transform="matrix(0.721099 -0.692832 0.721099 0.692832 250.474 512)" fill="#DA8AFF"/>
<path d="M103.961 902.956H181.822C199.495 902.956 213.822 917.283 213.822 934.956V1000.02H111.961C107.542 1000.02 103.961 996.436 103.961 992.018V902.956Z" fill="#DA8AFF"/>
<path d="M204.982 23.9814L204.982 97.5361C204.982 115.209 190.655 129.536 172.982 129.536L103.96 129.536L103.96 31.9814C103.96 27.5632 107.542 23.9814 111.96 23.9814L204.982 23.9814Z" fill="#DA8AFF"/>
<path d="M921.036 121.043L843.174 121.043C825.501 121.043 811.174 106.717 811.174 89.0435L811.174 23.9817L913.036 23.9817C917.454 23.9817 921.036 27.5634 921.036 31.9817L921.036 121.043Z" fill="#DA8AFF"/>
<path d="M820.015 1000.02L820.015 926.461C820.015 908.788 834.342 894.461 852.015 894.461L921.037 894.461L921.037 992.016C921.037 996.434 917.455 1000.02 913.037 1000.02L820.015 1000.02Z" fill="#DA8AFF"/>
</svg>
